<svg xmlns="http://www.w3.org/2000/svg" data-name="Layer 1" viewBox="0 0 64 80" x="0px" y="0px"><title>Actor1-JUL14</title><path d="M54.46,31c.08-.22.08-.22.07-2.38V23.28c-.11-9.12-1.89-14.65-5.29-16.42A6,6,0,0,0,43.83,7C39.89,4.1,32.18,3.28,28.08,4,16.34,6.06,14.89,13,13.61,19.18A35.62,35.62,0,0,1,12.36,24a13.31,13.31,0,0,0-.69,2.85L11,32,9.46,54.37a1,1,0,0,0,1.41,1l5.27-2.43,1.57,4a1,1,0,0,0,.84.63,1,1,0,0,0,.93-.47L21,54.51l5.15,4.16a1,1,0,0,0,1.57-1.07l-1.67-5.42a5.28,5.28,0,0,0,1.93.38h8.69a5.27,5.27,0,0,0,1.81-.34L36.66,59a1,1,0,0,0,1.66,1l5.21-5.18L45,57.22a1,1,0,0,0,.93.47,1,1,0,0,0,.84-.63L48.39,53l3.77,1.33a1,1,0,0,0,1.32-1l-.43-7.53a13,13,0,0,1,.89-5.48,5.63,5.63,0,0,0,.3-3.19l-.46-3.46c-.18-.87-.14-.93.13-1.45A10.48,10.48,0,0,0,54.46,31ZM21.39,52.25a1,1,0,0,0-1.47.26l-1.1,1.8-1.22-3.1a1,1,0,0,0-.35-.42L17,33.11a.55.55,0,0,0-.59-.57.58.58,0,0,0-.57.59l.3,17.63-4.52,2.08L13,32.24l.65-5.08a11.28,11.28,0,0,1,.58-2.43,37.48,37.48,0,0,0,1.33-5.15C16.82,13.51,18,7.78,28.42,6c4.09-.72,11.18.33,14.32,2.69v.47l-3.18-.47a.58.58,0,0,0-.66.49.58.58,0,0,0,.49.66l3.35.49v.43l-3.49-.16a.58.58,0,0,0-.05,1.17l3.54.16v.73H38.93a.58.58,0,0,0,0,1.17h3.81v1.05H33.56a28.08,28.08,0,0,0-4.84.32,20.75,20.75,0,0,0-10.17,4.71,1,1,0,1,0,1.29,1.51,18.73,18.73,0,0,1,3-2.06L21.1,22,16.36,24.5a1,1,0,1,0,.94,1.75L19,25.36l-1.14,2.1a1,1,0,0,0-.12.47l-.07,14.23a5.24,5.24,0,0,0,1,3.12v4.79a.58.58,0,1,0,1.17,0v-3.5l.71.72v3.59a.58.58,0,1,0,1.17,0V48.45l1.76,1.77a1,1,0,0,0,0,.38l1.38,4.49ZM28,50.58a3.33,3.33,0,0,1-2.34-1l-5.09-5.12a3.28,3.28,0,0,1-1-2.32l.07-14L21,25.71l4.21-6.5c1.54-1.54,2.48-2.39,8.31-2.39h9.18v3.31a10.26,10.26,0,0,0,1.41,5.18l.94,1.61V42.15a3.28,3.28,0,0,1-1,2.33L39,49.6a3.33,3.33,0,0,1-2.34,1Zm24.08-11a15,15,0,0,0-1,6.33l.34,6L48.15,50.8a1,1,0,0,0-1.26.57l-1.22,3.1-1.1-1.8A1,1,0,0,0,43,52.49l-3.47,3.44L41,50.73a1,1,0,0,0,0-.28l1.37-1.38v1.78a.58.58,0,0,0,1.17,0v-3l.71-.72v2.88a.58.58,0,0,0,1.17,0V46l.12-.12a5.26,5.26,0,0,0,1.54-3.73V26.66a1,1,0,0,0-.14-.5l-1.08-1.84a8.26,8.26,0,0,1-1-3l1.77.54.17,0a.58.58,0,0,0,.17-1.14l-2.21-.68V19.3l1.86.6.18,0a.58.58,0,0,0,.18-1.14l-2.21-.71V8.75a4,4,0,0,1,3.61-.13c1.85,1,4.09,4.32,4.21,14.67v4.55l-.6-1a.58.58,0,0,0-1,.59l1.61,2.74c0,.12,0,.23,0,.31a9,9,0,0,1-.4.82l-.06.12-2.57-4.57a.58.58,0,1,0-1,.57l3.19,5.67a6.24,6.24,0,0,0,.13.92l.46,3.46A3.72,3.72,0,0,1,52.09,39.58ZM33.43,37.86a.58.58,0,0,1,.93-.7l.44.58a.58.58,0,1,1-.93.7ZM31,37a.58.58,0,0,1,.12.82l-.44.58a.58.58,0,1,1-.93-.7l.44-.58A.58.58,0,0,1,31,37Zm3.77,6.22a.58.58,0,0,1,0,.83,3.46,3.46,0,0,1-4.92,0,.58.58,0,0,1,.84-.82,2.35,2.35,0,0,0,3.26,0A.58.58,0,0,1,34.81,43.26Zm2.72-.79a.58.58,0,0,1-.56.43l-.16,0L33.66,42a.87.87,0,0,0-.35.07l-.27.11a2,2,0,0,1-1.44,0l-.35-.12a.86.86,0,0,0-.52,0L28,42.87a.58.58,0,0,1-.33-1.12L30.4,41a2,2,0,0,1,1.24,0l.35.12a.84.84,0,0,0,.61,0l.27-.11a2,2,0,0,1,1-.13l3.22.89A.59.59,0,0,1,37.52,42.47ZM33,47v1.1a.58.58,0,0,1-1.17,0V47A.58.58,0,0,1,33,47Zm6.09-14.61a1,1,0,0,1-1-1V30.07a1,1,0,0,1,.27-.66l-2.73.4a1,1,0,1,1-.29-2l4-.59a5.68,5.68,0,0,1,2.88.32l.84.32a1,1,0,1,1-.71,1.85l-.84-.32a3.74,3.74,0,0,0-1.88-.21h0a1,1,0,0,1,.5.84v1.29A1,1,0,0,1,39.12,32.35Zm-11.86-1a1,1,0,0,1-2,0V30.07a1,1,0,0,1,.47-.82l-.2,0a3.74,3.74,0,0,0-1.92.23l-.76.3a1,1,0,0,1-.74-1.84l.76-.3a5.7,5.7,0,0,1,2.95-.35l4,.59a1,1,0,0,1-.29,2L27,29.43a1,1,0,0,1,.25.64Z"/><text x="0" y="79" fill="#000000" font-size="5px" font-weight="bold" font-family="'Helvetica Neue', Helvetica, Arial-Unicode, Arial, Sans-serif">Created by Ozza Okuonghae</text><text x="0" y="84" fill="#000000" font-size="5px" font-weight="bold" font-family="'Helvetica Neue', Helvetica, Arial-Unicode, Arial, Sans-serif">from the Noun Project</text></svg>